<?xml version="1.0" encoding="utf-8"?>
<!-- Generator: Adobe Illustrator 15.1.0, SVG Export Plug-In . SVG Version: 6.00 Build 0)  -->
<!DOCTYPE svg PUBLIC "-//W3C//DTD SVG 1.1//EN" "http://www.w3.org/Graphics/SVG/1.1/DTD/svg11.dtd">
<svg version="1.1" id="Layer_1" xmlns="http://www.w3.org/2000/svg" xmlns:xlink="http://www.w3.org/1999/xlink" x="0px" y="0px"
	 width="1001.968px" height="264.988px" viewBox="0 0 1001.968 264.988" enable-background="new 0 0 1001.968 264.988"
	 xml:space="preserve">
<g>
	<polygon fill="#FFFFFF" points="361.698,202.439 329.716,202.439 329.716,123.507 303.511,123.507 303.511,225.172 
		361.698,225.172 	"/>
	<path fill="#FFFFFF" d="M411.051,226.048V123.507h-26.128v95.174c0,15.521-5.618,21.181-18.104,17.676
		c-0.728-0.154-1.383-0.447-2.119-0.723l-6.157,22.045c1.42,0.67,2.781,1.221,4.316,1.816
		C391.913,270.395,411.051,254.277,411.051,226.048z"/>
	<polygon fill="#FFFFFF" points="705.061,203.568 662.036,203.568 662.036,185.979 696.058,185.979 696.058,164.215 
		662.036,164.215 662.036,145.83 701.556,145.83 701.556,123.507 636.103,123.507 636.103,225.172 705.061,225.172 	"/>
	<polygon fill="#FFFFFF" points="794.986,203.568 751.997,203.568 751.997,185.979 785.96,185.979 785.96,164.215 751.997,164.215 
		751.997,145.83 791.476,145.83 791.476,123.507 725.994,123.507 725.994,225.172 794.986,225.172 	"/>
	<path fill="#FFFFFF" d="M222.668,123.507l-34.584,101.665h26.131l5.876-18.666h33.419l5.667,18.666h27.744l-35.373-101.665H222.668
		z M227.439,183.402l9.625-32.246l9.633,32.246H227.439z"/>
	<path fill="#FFFFFF" d="M497.566,225.172h27.757l-35.354-101.665h-28.878l-34.599,101.665h26.12l5.879-18.666h33.417
		L497.566,225.172z M465.828,183.402l9.63-32.246l9.645,32.246H465.828z"/>
	<path fill="#FFFFFF" d="M966.596,123.507h-28.814l-34.679,101.665h26.219l5.843-18.666h33.425l5.636,18.666h27.743L966.596,123.507
		z M942.513,183.402l9.615-32.246l9.611,32.246H942.513z"/>
	<path fill="#FFFFFF" d="M881.716,188.339c-3.849-9.05-5.246-10.888-8.895-12.595c0.625-0.137,1.301-0.43,1.811-0.676
		c11.299-5.275,16.804-18.402,12.457-32.893c-3.506-11.981-12.727-18.668-30.207-18.668H815.69v101.665h26.071v-37.973h6.014
		c4.238,0,6.735,1.826,8.952,7.199l1.392,3.23l0.778,1.879l9.806,25.664h27.085l-12.732-33.346
		C882.604,190.584,882.231,189.438,881.716,188.339z M859.872,161.793c-1.484,1.814-3.631,2.65-8.598,3.086c-0.778,0-1.5,0-2.285,0
		h-7.697V145.83h7.697c0.653,0,1.26,0.148,1.879,0.148c4.021,0.149,5.631,0.521,7.365,1.673
		C862.649,150.205,863.595,157.113,859.872,161.793z"/>
	<polygon fill="#FFFFFF" points="613.961,202.737 576.143,202.737 613.188,149.467 613.188,123.507 543.102,123.507 543.102,145.83 
		579.115,145.83 541.99,199.191 541.99,225.172 613.961,225.172 	"/>
</g>
<g>
	<polygon fill="#FFFFFF" points="61.033,239.633 69.831,246.93 78.387,236.586 69.607,229.312 	"/>
	<path fill="#FFFFFF" d="M113.817,239.158c-0.527-1.025-1.231-1.667-1.624-1.518c-0.243,0.08-0.037,1.02-0.054,1.58
		c-0.012,1.031-0.381,1.811-1.251,2.199c-0.753,0.344-2.666,1.008-4.118-1.569c-1.188-2.085-2.23-4.812-2.674-5.911
		c-0.41-0.984-1.017-2.199-1.652-1.895c-0.418,0.183-0.57,0.842-0.281,1.781c0.263,0.904,1.79,4.805,1.79,4.805
		c1.085,2.927,2.927,6.352,5.375,8.093c2.64,1.855,4.009,1.202,4.544,0.985c0.373-0.166,2.076-1.227,1.469-3.895
		C114.693,240.962,114.327,240.194,113.817,239.158z"/>
	<path fill="#FFFFFF" d="M51.465,88.556c4.439-0.129,7.918-3.84,7.784-8.248c-0.126-4.433-3.826-7.921-8.245-7.783
		c-4.424,0.131-7.907,3.817-7.781,8.259C43.353,85.2,47.05,88.688,51.465,88.556z"/>
	<path fill="#FFFFFF" d="M102.073,120.701l-0.934-4.507c-0.238,0.839-1.168,2.351-2.239,3.537c-0.773,0.813-4.447,4.842-7.981,8.706
		c-3.15,3.425-6.148,6.709-6.81,7.437c-1.538,1.664-2.308,3.318-2.116,4.181l0.919,4.505c0.252-0.848,1.203-2.354,2.265-3.533
		c0.759-0.825,4.433-4.849,7.973-8.681c3.136-3.454,6.148-6.747,6.821-7.482C101.483,123.23,102.262,121.569,102.073,120.701z"/>
	<polygon fill="#FFFFFF" points="85.306,174.707 95.641,179.576 101.354,167.463 91.027,162.594 	"/>
	<polygon fill="#FFFFFF" points="124.874,184.123 119.158,196.22 129.467,201.111 135.191,188.992 	"/>
	<polygon fill="#FFFFFF" points="71.566,211.316 63.012,221.615 71.781,228.895 80.354,218.591 	"/>
	<path fill="#FFFFFF" d="M36.425,127.989c0,0,2.274-1.853,1.521-2.761c-0.398-0.481-2.532,1.208-2.532,1.208
		s-6.417,4.55-9.006,10.613c-1.586,3.671-1.495,7.681-0.587,9.616s3.056,3.803,5.848,1.564c1.958-1.564,2.812-3.74,3.248-5.596
		c0.269-1.1,0.346-1.816,0.346-2.346c-0.008-0.693-0.212-1.26-0.882-1.08c-1.841,0.59-0.742,3.099-2.073,4.307
		c-1.02,0.619-3.631,0.293-4.149-2.291c-0.521-2.591,1.469-5.934,3.284-8.118C33.25,130.907,36.425,127.989,36.425,127.989z"/>
	<path fill="#FFFFFF" d="M62.577,190.125c0.453-2.972,0.934-3.527,1.85-4.295c2.474-2.096,8.508-7.771,11.42-10.298
		c1.792-1.581,3.328-3.122,4.341-5.149c1.289-2.434,0.599-5.688,0.599-5.688l-1.75-12.096c-0.435,1.719-2.549,4.135-5.49,7.107
		c-3.098,3.122-11.334,10.178-12.076,10.934c-0.753,0.762-3.411,2.715-4.59,11.959c-2.973,25.166-7.941,37.021-16.827,41.043
		c-2.38,1.1-4.994,1.615-7.95,1.707c-16.334-0.161-20.621-20.059-20.521-30.923c0-0.624,0.017-1.266,0.043-1.907
		c3.794,5.121,9.416,10.166,16.292,9.124c11.045-1.667,7.6-20.235,6.011-24.548c-1.578-4.33-5.848-17.256-15.08-16.615
		c-6.566,0.447-9.616,8.121-10.994,14.594c-1.249-5.132-1.933-11.135-1.543-15.836c0.982-11.221,4.831-25.272,21.226-39.079
		c11.649-9.819,24.885-16.847,32.248-22.654c4.679-3.666,7.574-7.795,9.212-11.647c-0.47,3.746-1.395,7.815-3.202,12.54
		c-6.784,17.833-27.38,47.248-27.652,88.863c0,12.789,1.197,23.838,3.23,33.311c1.131-0.779,2.176-1.764,3.153-2.938
		c-1.403-6.775-2.236-14.279-2.236-22.252c0-41.523,20.441-70.922,27.087-88.717c3.54-9.353,3.617-16.197,3.617-22.941
		c0-8.265-1.867-16.907-3.58-20.264c-1.933-3.348-4.353-4.771-8.035-4.673c-4.416,0.132-7.904,3.834-7.772,8.259
		c0.138,4.422,3.817,7.91,8.253,7.781c2.402-0.069,4.527-1.194,5.939-2.915l0.171-0.181c0.954,6.369-2.133,11.478-9.232,17.403
		c-7.291,6.105-24.358,14.124-36.475,23.694c-17.068,13.459-21.1,28.144-22.137,40.035c-0.452,5.286,0.333,12.256,1.767,18.029
		c1.833,7.234,4.456,12.784,4.456,12.784s0.134,0.24,0.323,0.636c-0.406,7.869,0.373,21.598,4.817,31.941
		c5.959,13.391,16.698,24.354,32.059,21.123C59.069,233.734,60.81,208.539,62.577,190.125z M20.406,175.291
		c6.512-3.041,9.069,4.743,9.069,4.743c-0.716,8.373-10.481,10.406-16.578,5.068C14.157,181.105,16.457,177.537,20.406,175.291z"/>
	<path fill="#FFFFFF" d="M69.859,183.951l-4.175,3.746c4.384,10.206,11.002,19.066,18.605,25.556
		c0.796-5.344,1.67-9.095,2.426-11.775C79.009,195.928,73.433,189.942,69.859,183.951z"/>
	<path fill="#FFFFFF" d="M129.688,120.34c1.512,4.937,9.35,32.351,3.038,43.875c-1.941,4.645-5.57,10.39-12.271,17.309
		c-10.848,11.145-18.127,17.686-21.466,24.467c-2.646,6.014-4.138,22.703-4.453,25.682c-0.645,6.094-1.343,12.439-2.36,18.127
		c-1.956,11.301-8.036,15.189-15.759,15.189c-10.175,0-21.821-8.367-29.548-26.58c1.395-0.607,2.667-1.398,3.854-2.28
		c5.705,11.507,13.568,17.881,21.229,16.226l-0.009-0.028c0.447-0.086,0.882-0.194,1.306-0.366
		c8.047-2.979,10.02-13.346,10.739-19.834c0.307-2.87,1.277-9.308,2.165-14.715c1.137-9.141,2.489-14.329,3.557-17.376
		c0.773-2.463,2.288-5.624,3.219-7.028c3.645-6.385,10.521-13.258,21.017-23.275c1.621-1.553,3.081-3.023,4.387-4.439
		c5.558-6.294,13.024-15.692,11.589-25.59c-6.186,8.03-19.849,13.46-24.783,23.128c-1.297-3.632-3.116-9.198-3.457-10.642
		c-0.192-0.865-1.738-5.35,2.735-10.453c5.272-6.002,7.981-12.182,7.678-20.724c-0.332-3.537-1.664-6.99-3.866-10.639
		C101.701,99.507,90.5,88.937,83.871,81.858c1.824,9.742,0.662,27.509-8.806,45.02c-6.501,11.95-11.79,25.286-10.954,38.546
		c-1.698,1.562-3.104,2.857-3.757,3.488c-0.553-3.678-0.879-7.48-0.896-11.363c0-16.908,7.32-30.8,12.967-44.076
		c6.956-16.277,9.551-26.827,7.22-35.636c-0.942-3.479-1.979-4.977-4.026-10.776c-2.684-7.589-1.526-15.562,4.813-24.196
		c-4.722-8.219-6.435-15.515-6.455-21.624c-0.046-9.974,3.399-16.478,7.5-19.361c2.901-2.039,3.946-1.933,4.37-1.841
		c0.409,0.063,0.639,0.759,0.054,1.06c-0.979,0.51-2.047,1.303-2.93,2.01c-3.963,3.313-5.968,10.796-2.855,20.455
		c1.589,4.952,4.674,10.708,9.969,17.329c16.675,20.928,43.82,53.285,58.511,85.985c9.152,18.62,10.791,36.283,10.791,36.283
		c3.909,42.485-17.322,62.737-44.464,62.451c-0.381-0.022-0.762-0.034-1.14-0.04l-0.023-0.018
		c-5.275-0.205-10.681-1.494-15.676-3.596c0.816-6.117,1.658-10.573,2.549-13.362c0.215,0.074,0.424,0.12,0.653,0.171v0.012
		c33.027,8.964,55.072-23.001,49.27-54.455c-1.569-7.188-4.424-14.729-8.133-22.38c-14.688-30.384-42.701-62.242-57.563-82.337
		c-0.871-1.2-1.658-2.345-2.422-3.479c-4.043,4.951-7.738,12.743,3.167,24.822c8.422,9.333,27.079,25.501,31.778,43.683l0.015-0.017
		c0.054,0.252,0.132,0.51,0.183,0.788c0,0,0,0.029,0,0.034c1.042,4.551,1.75,10-0.842,17.125c4.625-3.376,9.619-7.531,12.397-12.065
		c0.026-0.04,0.043-0.065,0.06-0.123c0.129-0.172,0.175-0.252,0.312-0.252C129.616,120.123,129.645,120.203,129.688,120.34z"/>
</g>
</svg>
